<svg width="17" height="20" viewBox="0 0 17 20" fill="none" xmlns="http://www.w3.org/2000/svg">
<path d="M16.6069 16.8692L15.1761 14.4842C14.5153 13.3834 14.1661 12.1225 14.1661 10.8392V8.75C14.1661 6.1125 12.4061 3.88168 9.99941 3.1625V1.66668C9.99941 0.7475 9.25191 0 8.33273 0C7.41355 0 6.66605 0.7475 6.66605 1.66668V3.1625C4.25941 3.88168 2.49941 6.1125 2.49941 8.75V10.8392C2.49941 12.1225 2.15023 13.3825 1.49023 14.4834L0.0594074 16.8684C-0.0180926 16.9975 -0.0197722 17.1575 0.0544075 17.2884C0.128587 17.4192 0.266087 17.5 0.416087 17.5H16.2494C16.3994 17.5 16.5377 17.4192 16.6119 17.2892C16.6861 17.1592 16.6836 16.9975 16.6069 16.8692Z" fill="#FCFCFC"/>
<path d="M5.70801 18.3333C6.17801 19.3149 7.17301 19.9999 8.33215 19.9999C9.49129 19.9999 10.4863 19.3149 10.9563 18.3333H5.70801Z" fill="#FCFCFC"/>
</svg>
