<svg width="21" height="20" viewBox="0 0 21 20" fill="none" xmlns="http://www.w3.org/2000/svg">
<path d="M18.8248 7.53125H18.4002C18.2623 7.09961 18.0883 6.68031 17.8798 6.27746L18.1805 5.97676C18.9096 5.24844 18.8901 4.08125 18.1807 3.37266L17.2936 2.48555C16.5854 1.77645 15.418 1.7559 14.6895 2.48527L14.3886 2.78621C13.9857 2.57777 13.5664 2.40371 13.1348 2.26578V1.84113C13.1348 0.825937 12.3088 0 11.2936 0H10.0384C9.0232 0 8.19727 0.825937 8.19727 1.84113V2.26578C7.76566 2.40367 7.34633 2.57773 6.94348 2.78621L6.64281 2.48555C5.91574 1.75762 4.74836 1.77469 4.03875 2.48531L3.15152 3.37246C2.44246 4.08074 2.42195 5.24801 3.15129 5.97656L3.45223 6.2775C3.24375 6.68035 3.06973 7.09961 2.9318 7.53129H2.50719C1.49199 7.53125 0.666016 8.35719 0.666016 9.37238V10.6276C0.666016 11.6428 1.49199 12.4688 2.50719 12.4688H2.9318C3.06973 12.9004 3.24375 13.3197 3.45223 13.7225L3.15152 14.0232C2.42242 14.7516 2.44195 15.9187 3.15129 16.6273L4.03844 17.5145C4.7466 18.2236 5.91402 18.2441 6.64254 17.5147L6.94348 17.2138C7.34633 17.4222 7.76566 17.5963 8.19727 17.7342V18.1589C8.19727 19.1741 9.02324 20 10.0384 20H11.2936C12.3088 20 13.1348 19.1741 13.1348 18.1589V17.7342C13.5664 17.5963 13.9857 17.4223 14.3886 17.2138L14.6893 17.5145C15.4163 18.2424 16.5837 18.2253 17.2933 17.5147L18.1805 16.6275C18.8896 15.9192 18.9101 14.752 18.1808 14.0234L17.8798 13.7225C18.0883 13.3196 18.2623 12.9004 18.4003 12.4687H18.8249C19.8401 12.4687 20.6661 11.6427 20.6661 10.6275V9.3723C20.666 8.35719 19.84 7.53125 18.8248 7.53125ZM10.666 14.3516C8.26652 14.3516 6.31445 12.3995 6.31445 10C6.31445 7.60055 8.26652 5.64844 10.666 5.64844C13.0655 5.64844 15.0176 7.60055 15.0176 10C15.0176 12.3995 13.0655 14.3516 10.666 14.3516Z" fill="#FCFCFC"/>
</svg>
