<svg width="39" height="30" viewBox="0 0 39 30" fill="none" xmlns="http://www.w3.org/2000/svg">
<path d="M14.4204 0C16.0974 0.312606 17.7457 0.759186 19.3864 1.22466C20.3245 1.49719 21.2606 1.77916 22.1904 2.07946C23.6509 2.54465 25.1052 3.07138 26.428 3.85691C27.0206 4.21675 27.5897 4.62325 28.0761 5.11907C28.603 5.63641 29.0346 6.24255 29.3511 6.90968C29.9279 8.1143 30.1255 9.46006 30.1839 10.7832C30.2113 11.6466 30.2096 12.5174 30.0482 13.3696C29.9142 14.1102 29.676 14.8405 29.2798 15.4837C28.93 16.0517 28.4436 16.5432 27.8533 16.8598C27.2871 17.165 26.639 17.3104 25.9969 17.2975C25.023 17.3076 24.078 16.9972 23.204 16.5902C23.188 13.6837 23.2015 10.7766 23.1972 7.87069C23.1912 7.34481 23.2269 6.8135 23.1207 6.29478C23.046 5.89285 22.8823 5.48778 22.5665 5.21497C22.3575 5.02632 22.0862 4.91982 21.8136 4.86228C21.538 4.8099 21.244 4.92698 21.0733 5.14827C20.7896 5.50267 20.7152 5.9733 20.7023 6.41444C20.7 14.1955 20.7052 21.9769 20.7 29.7574C18.6066 29.094 16.5134 28.4297 14.4204 27.7647C14.4184 18.5099 14.4193 9.25509 14.4204 0V0ZM5.01192 19.6907C7.74092 18.7246 10.4671 17.7487 13.1972 16.786C13.2015 17.8572 13.1972 18.929 13.1989 20.0014C13.1972 20.1468 13.2064 20.2928 13.1883 20.4373C11.0304 21.2022 8.87655 21.9806 6.72095 22.7504C6.42208 22.8635 6.11549 22.9911 5.88504 23.2193C5.77769 23.3264 5.69009 23.4847 5.74878 23.6378C5.82263 23.8185 6.00699 23.9169 6.17703 23.9911C6.64995 24.1835 7.16695 24.2109 7.67079 24.2338C8.23245 24.225 8.79669 24.1829 9.34661 24.0615C9.71847 23.9882 10.0763 23.8631 10.4307 23.73C11.3519 23.3965 12.2731 23.061 13.1958 22.7309C13.2024 23.6373 13.1969 24.5442 13.1986 25.4516C13.1958 25.6328 13.207 25.8152 13.1889 25.9955C12.0559 26.1991 10.9094 26.3371 9.75769 26.3554C7.43862 26.4078 5.11412 26.0488 2.91127 25.324C2.18902 25.1147 1.47105 24.8359 0.867598 24.3773C0.535525 24.1202 0.238378 23.797 0.0872275 23.3994C-0.0393035 23.0624 -0.0301429 22.6737 0.127591 22.3488C0.2796 22.0244 0.545258 21.7685 0.837826 21.5692C1.51457 21.1018 2.26144 20.7451 3.01777 20.4273C3.67017 20.1496 4.34634 19.9332 5.01192 19.6907Z" fill="white"/>
<path d="M26.9695 18.47C27.5884 18.3984 28.2113 18.3816 28.8336 18.3592C30.8805 18.367 32.9382 18.6214 34.8963 19.2358C35.2804 19.3526 35.6526 19.504 36.0353 19.6257C36.7178 19.875 37.4008 20.1773 37.947 20.668C38.2751 20.9671 38.5582 21.3705 38.5619 21.8308C38.5814 22.2058 38.4119 22.5654 38.1686 22.8416C37.706 23.3603 37.0945 23.717 36.4808 24.0279C35.8272 24.3611 35.1247 24.5761 34.4394 24.8298C30.2564 26.3318 26.0729 27.8333 21.8908 29.3371C21.8899 28.1651 21.8919 26.9937 21.8899 25.8231C21.8962 25.7762 21.8707 25.6946 21.9366 25.6823C25.1193 24.5501 28.3012 23.4145 31.4836 22.2788C31.9139 22.1179 32.3774 22.0014 32.7424 21.7097C32.8918 21.5923 33.0381 21.4057 32.9648 21.2042C32.8884 21.0281 32.7057 20.9308 32.5377 20.8578C32.0613 20.6691 31.5426 20.6328 31.0359 20.6185C30.2427 20.6239 29.4425 20.7215 28.6879 20.976C26.421 21.7704 24.1583 22.5745 21.8908 23.3664C21.891 22.1082 21.8899 20.8509 21.8913 19.593C23.5314 19.0174 25.2444 18.6684 26.9695 18.47ZM36.2683 27.1368C36.7633 27.0753 37.2803 27.2971 37.5769 27.6982C37.9006 28.1124 37.9599 28.7096 37.7312 29.1825C37.5002 29.6732 36.9726 30.017 36.4258 29.9992C35.9228 30.0104 35.4356 29.7175 35.188 29.2835C34.9644 28.9017 34.9375 28.4124 35.1107 28.0059C35.3056 27.5364 35.7642 27.1941 36.2683 27.1368ZM36.1607 27.4013C35.8811 27.4663 35.6345 27.6303 35.4665 27.8631C35.3674 28 35.2984 28.1563 35.2642 28.3218C35.2299 28.4873 35.2312 28.6582 35.2678 28.8232C35.3349 29.1309 35.521 29.3995 35.7854 29.5704C36.187 29.8343 36.7501 29.8197 37.1346 29.53C37.5311 29.2498 37.7194 28.7122 37.5829 28.2464C37.4987 27.9315 37.2737 27.6633 36.9903 27.5072C36.7384 27.3741 36.4378 27.3355 36.1607 27.4013Z" fill="white"/>
<path d="M35.8179 27.7384C36.0758 27.7369 36.3346 27.7381 36.5928 27.7375C36.7388 27.7395 36.8997 27.7736 37.0033 27.8858C37.1073 28.0032 37.1158 28.1744 37.0872 28.3215C37.0709 28.4188 36.9853 28.4764 36.9232 28.5442C36.977 28.5923 37.0463 28.637 37.0592 28.7151C37.0889 28.8643 37.0574 29.0206 37.1053 29.1666C37.1353 29.2184 37.1659 29.2705 37.1682 29.332C37.0612 29.3352 36.9544 29.3332 36.8473 29.3349C36.7752 29.1649 36.8293 28.9742 36.7841 28.7993C36.7663 28.728 36.6925 28.6836 36.6223 28.6859C36.4477 28.6788 36.2722 28.6836 36.0984 28.6836C36.0956 28.9006 36.1045 29.1182 36.093 29.3349C36.0019 29.3331 35.9107 29.3332 35.8196 29.3352C35.8147 28.8022 35.8179 28.2703 35.8179 27.7384ZM36.0979 27.9914V28.4326C36.2539 28.4337 36.4102 28.4349 36.5668 28.4332C36.6444 28.4326 36.7345 28.418 36.7849 28.3521C36.8104 28.3099 36.8242 28.2617 36.825 28.2124C36.8257 28.1632 36.8134 28.1146 36.7892 28.0716C36.7488 28.0046 36.6638 27.9977 36.594 27.9934C36.4285 27.9883 36.263 27.9914 36.0979 27.9914Z" fill="white"/>
</svg>
