<svg width="20" height="20" viewBox="0 0 20 20" fill="none" xmlns="http://www.w3.org/2000/svg">
<path d="M19.1666 9.16663H10.8333V0.833348C10.8333 0.373095 10.4602 0 9.99998 0C9.53972 0 9.16663 0.373095 9.16663 0.833348V9.16668H0.833348C0.373095 9.16663 0 9.53972 0 9.99998C0 10.4602 0.373095 10.8333 0.833348 10.8333H9.16668V19.1667C9.16668 19.6269 9.53977 20 10 20C10.4603 20 10.8334 19.6269 10.8334 19.1667V10.8333H19.1667C19.627 10.8333 20 10.4602 20 9.99998C20 9.53972 19.6269 9.16663 19.1666 9.16663Z" fill="white"/>
</svg>
